<svg xmlns="http://www.w3.org/2000/svg" viewBox="5 5 170 180">
  <!-- Left shape (gray) -->
  <path fill="#AFB1B2" d="M81.8,112.8c-0.1,0-0.2,0-0.2,0v0c-9.7-0.6-18.1-10.9-18.1-18.4c0.2-5.8,0.5-12.8,0.8-13.9
    c5.4-30.2,28.1-54.4,57.4-62c-10.5-5.4-22.4-8.5-35-8.5C44.4,10,10,44.4,10,86.7V155c0,14.8,12,26.7,26.7,26.7s26.7-12,26.7-26.7
    v-14.3c0-10.4,8-18.8,18.2-19.5v0c0.1,0,0.2,0,0.2,0c2.3,0,4.2-1.9,4.2-4.2S84.1,112.8,81.8,112.8L81.8,112.8z"/>
  <!-- Right shapes (coral) -->
  <path fill="#F2836B" d="M146.7,47c4.1,0,8.1,0.3,12,0.9c-4.9-8.3-11.2-15.6-18.7-21.5C112.5,29,89.2,45.7,77.3,69.1
    c4.1-3.5,9.4-5.7,15.2-5.7c1.7,0,3.3,0.2,4.9,0.5C111,53.4,128.1,47,146.7,47L146.7,47z"/>
  <path fill="#F2836B" d="M165.3,62.7c-6.9-1.9-14.1-2.9-21.5-2.9c-13.2,0-25.7,3.2-36.7,8.9c5.3,4.3,8.7,10.8,8.7,18.1v7.8
    c0,7.5-8.4,17.7-18.1,18.4v0c-0.1,0-0.2,0-0.2,0c-2.3,0-4.2,1.9-4.2,4.2s1.9,4.2,4.2,4.2c0.1,0,0.2,0,0.2,0v0
    c9.8,0.7,17.6,8.5,18.1,18.4V155c0,14.8,12,26.7,26.7,26.7s26.7-12,26.7-26.7V86.7C169.2,78.3,167.8,70.2,165.3,62.7L165.3,62.7z"/>
</svg>
