<?xml version="1.0" encoding="UTF-8"?>
<svg xmlns="http://www.w3.org/2000/svg" viewBox="0 0 1600 1000" font-family="'Fira Code', 'Courier New', monospace">

  <defs>
    <radialGradient id="bgGrad" cx="20%" cy="0%">
      <stop offset="0%"  stop-color="#3a3760"/>
      <stop offset="60%" stop-color="#2A2847"/>
      <stop offset="100%" stop-color="#1a1830"/>
    </radialGradient>
    <radialGradient id="mapGlow" cx="50%" cy="50%">
      <stop offset="0%"  stop-color="#60d5ff" stop-opacity="0.32"/>
      <stop offset="50%" stop-color="#a78bfa" stop-opacity="0.15"/>
      <stop offset="100%" stop-color="#34d399" stop-opacity="0"/>
    </radialGradient>
    <linearGradient id="mapBorder" x1="0%" y1="0%" x2="100%" y2="100%">
      <stop offset="0%"   stop-color="#c084fc"/>
      <stop offset="50%"  stop-color="#60d5ff"/>
      <stop offset="100%" stop-color="#34d399"/>
    </linearGradient>
    <linearGradient id="headlineGrad" x1="0%" y1="0%" x2="100%" y2="0%">
      <stop offset="0%"   stop-color="#c084fc"/>
      <stop offset="50%"  stop-color="#60d5ff"/>
      <stop offset="100%" stop-color="#34d399"/>
    </linearGradient>
    <filter id="softGlow" x="-50%" y="-50%" width="200%" height="200%">
      <feGaussianBlur stdDeviation="3" result="blur"/>
      <feMerge><feMergeNode in="blur"/><feMergeNode in="SourceGraphic"/></feMerge>
    </filter>
    <filter id="bigGlow" x="-50%" y="-50%" width="200%" height="200%">
      <feGaussianBlur stdDeviation="8" result="blur"/>
      <feMerge><feMergeNode in="blur"/><feMergeNode in="SourceGraphic"/></feMerge>
    </filter>
    <pattern id="grid" width="40" height="40" patternUnits="userSpaceOnUse">
      <path d="M 40 0 L 0 0 0 40" fill="none" stroke="rgba(255,255,255,0.025)" stroke-width="1"/>
    </pattern>
  </defs>

  <!-- ═══════════════════════════ BACKGROUND ═══════════════════════════ -->
  <rect width="1600" height="1000" fill="url(#bgGrad)"/>
  <rect width="1600" height="1000" fill="url(#grid)"/>

  <!-- ═══════════════════════════ HEADER ═══════════════════════════ -->

  <!-- Positioning pill -->
  <rect x="600" y="32" width="400" height="32" rx="16"
        fill="rgba(96,213,255,0.10)" stroke="#60d5ff" stroke-width="1.2"/>
  <text x="800" y="53" text-anchor="middle" font-size="11" letter-spacing="5" font-weight="700" fill="#60d5ff">// THE ENTERPRISE CONTROL PLANE FOR AI</text>

  <!-- Headline -->
  <text x="800" y="110" text-anchor="middle" font-size="40" font-weight="700" letter-spacing="-2" fill="#fff">Stacktic gives AI <tspan fill="url(#headlineGrad)">the map.</tspan></text>
  <text x="800" y="148" text-anchor="middle" font-size="17" font-weight="500" letter-spacing="0.5" fill="#cbd5e1">Bound. Restricted. Governed. <tspan fill="url(#headlineGrad)" font-weight="700">Production-grade.</tspan></text>

  <!-- Zone labels -->
  <text x="180" y="200" font-size="11" letter-spacing="4" font-weight="700" fill="#c084fc">// AI CLIENTS</text>
  <text x="780" y="200" text-anchor="middle" font-size="11" letter-spacing="4" font-weight="700" fill="#fff">// STACKTIC &mdash; THE MAP &mdash; SOURCE OF TRUTH</text>
  <text x="1340" y="200" text-anchor="middle" font-size="11" letter-spacing="4" font-weight="700" fill="#34d399">// AUTONOMOUS OUTPUT</text>

  <!-- Subtle column dividers -->
  <line x1="450" y1="220" x2="450" y2="850" stroke="rgba(255,255,255,0.05)" stroke-dasharray="3 6"/>
  <line x1="1080" y1="220" x2="1080" y2="850" stroke="rgba(255,255,255,0.05)" stroke-dasharray="3 6"/>

  <!-- ═══════════════════════════ FLOW PATHS (drawn first, behind nodes) ═══════════════════════════ -->

  <!-- AI Clients → Map (terminate at vault left edge x=540) -->
  <g fill="none" stroke="#c084fc" stroke-width="1.3" opacity="0.5" stroke-dasharray="6 5">
    <path d="M 222 260 Q 370 340 540 410"/>
    <path d="M 222 360 Q 370 410 540 470"/>
    <path d="M 222 460 Q 370 480 540 510"/>
    <path d="M 222 560 Q 370 540 540 540"/>
    <path d="M 222 660 Q 370 610 540 580"/>
  </g>
  <g fill="#c084fc" filter="url(#softGlow)">
    <circle cx="380" cy="312" r="3"/>
    <circle cx="395" cy="395" r="3"/>
    <circle cx="395" cy="470" r="3"/>
    <circle cx="395" cy="545" r="3"/>
    <circle cx="395" cy="625" r="3"/>
  </g>

  <!-- Map → Cards (start at vault right edge x=1020, end at card left edge x=1100) -->
  <g fill="none" stroke-width="1.4" opacity="0.6" stroke-dasharray="6 5">
    <path d="M 1020 380 Q 1060 340 1100 305" stroke="#34d399"/>
    <path d="M 1020 460 Q 1060 460 1100 460" stroke="#60d5ff"/>
    <path d="M 1020 540 Q 1060 575 1100 605" stroke="#fbbf24"/>
    <path d="M 1020 620 Q 1060 690 1100 750" stroke="#f87171"/>
  </g>
  <g filter="url(#softGlow)">
    <circle cx="1060" cy="340" r="3" fill="#34d399"/>
    <circle cx="1060" cy="460" r="3" fill="#60d5ff"/>
    <circle cx="1060" cy="575" r="3" fill="#fbbf24"/>
    <circle cx="1060" cy="690" r="3" fill="#f87171"/>
  </g>

  <!-- ═══════════════════════════ LEFT — AI CLIENTS ═══════════════════════════ -->

  <!-- 1. ChatGPT (OpenAI) -->
  <g>
    <circle cx="180" cy="260" r="50" fill="none" stroke="#c084fc" stroke-width="1" stroke-dasharray="2 4" opacity="0.4"/>
    <circle cx="180" cy="260" r="42" fill="#10a37f" stroke="#10a37f" stroke-width="1.5"/>
    <g transform="translate(156 236) scale(2)">
      <path fill="#fff" d="M22.28 9.82a5.99 5.99 0 0 0-.52-4.91 6.05 6.05 0 0 0-6.51-2.9A6.07 6.07 0 0 0 10.73.18 6.06 6.06 0 0 0 4.98 4.18 5.99 5.99 0 0 0 .98 7.08a6.05 6.05 0 0 0 .74 7.1 5.98 5.98 0 0 0 .51 4.91 6.05 6.05 0 0 0 6.52 2.9A5.99 5.99 0 0 0 13.25 24a6.06 6.06 0 0 0 5.77-4.2 5.99 5.99 0 0 0 4-2.9 6.06 6.06 0 0 0-.74-7.08zM13.25 22.43a4.48 4.48 0 0 1-2.88-1.05l.14-.08 4.78-2.76a.78.78 0 0 0 .39-.67v-6.74l2.02 1.17a.07.07 0 0 1 .04.05v5.58a4.5 4.5 0 0 1-4.49 4.5zM3.6 18.28a4.47 4.47 0 0 1-.54-3.02l.14.09 4.78 2.76a.77.77 0 0 0 .78 0l5.83-3.37v2.33a.07.07 0 0 1-.03.06L9.7 19.9a4.5 4.5 0 0 1-6.1-1.62zM2.34 7.89A4.47 4.47 0 0 1 4.7 5.92l-.01.16v5.52a.78.78 0 0 0 .39.67l5.83 3.37-2.02 1.17a.07.07 0 0 1-.07 0L3.97 14.04a4.5 4.5 0 0 1-1.63-6.15zm16.58 3.86l-5.84-3.37 2.02-1.16a.07.07 0 0 1 .07 0l4.85 2.8a4.49 4.49 0 0 1-.7 8.1v-5.7a.78.78 0 0 0-.4-.67zM20.93 9.5l-.15-.09-4.78-2.76a.77.77 0 0 0-.78 0l-5.83 3.37V7.69a.07.07 0 0 1 .03-.06l4.85-2.8a4.5 4.5 0 0 1 6.66 4.67zM8.68 13.5l-2.02-1.17a.07.07 0 0 1-.04-.06V6.71a4.5 4.5 0 0 1 7.37-3.45l-.14.08-4.78 2.76a.78.78 0 0 0-.39.67zm1.1-2.37l2.6-1.5 2.6 1.5v3l-2.6 1.5-2.6-1.5z"/>
    </g>
    <text x="248" y="257" font-size="14" font-weight="700" fill="#e2e8f0">ChatGPT</text>
    <text x="248" y="275" font-size="10" fill="#94a3b8">OpenAI &middot; intent</text>
  </g>

  <!-- 2. Claude (Anthropic) -->
  <g>
    <circle cx="180" cy="360" r="50" fill="none" stroke="#c084fc" stroke-width="1" stroke-dasharray="2 4" opacity="0.4"/>
    <circle cx="180" cy="360" r="42" fill="#D97757" stroke="#D97757" stroke-width="1.5"/>
    <g transform="translate(156 336) scale(2)" stroke="#fff" stroke-width="2.2" stroke-linecap="round">
      <line x1="12" y1="4" x2="12" y2="8"/>
      <line x1="12" y1="16" x2="12" y2="20"/>
      <line x1="4" y1="12" x2="8" y2="12"/>
      <line x1="16" y1="12" x2="20" y2="12"/>
      <line x1="6.3" y1="6.3" x2="9.2" y2="9.2"/>
      <line x1="14.8" y1="14.8" x2="17.7" y2="17.7"/>
      <line x1="6.3" y1="17.7" x2="9.2" y2="14.8"/>
      <line x1="14.8" y1="9.2" x2="17.7" y2="6.3"/>
    </g>
    <text x="248" y="357" font-size="14" font-weight="700" fill="#e2e8f0">Claude</text>
    <text x="248" y="375" font-size="10" fill="#94a3b8">Anthropic &middot; agent</text>
  </g>

  <!-- 3. Qwen (Alibaba) -->
  <g>
    <circle cx="180" cy="460" r="50" fill="none" stroke="#c084fc" stroke-width="1" stroke-dasharray="2 4" opacity="0.4"/>
    <circle cx="180" cy="460" r="42" fill="#615CED" stroke="#615CED" stroke-width="1.5"/>
    <g transform="translate(156 436) scale(2)">
      <circle cx="11" cy="11" r="7" stroke="#fff" stroke-width="2.2" fill="none"/>
      <line x1="14.5" y1="14.5" x2="20" y2="20" stroke="#fff" stroke-width="2.6" stroke-linecap="round"/>
      <circle cx="11" cy="11" r="2.2" fill="#fff"/>
    </g>
    <text x="248" y="457" font-size="14" font-weight="700" fill="#e2e8f0">Qwen</text>
    <text x="248" y="475" font-size="10" fill="#94a3b8">Alibaba &middot; open</text>
  </g>

  <!-- 4. Copilot (Microsoft) -->
  <g>
    <circle cx="180" cy="560" r="50" fill="none" stroke="#c084fc" stroke-width="1" stroke-dasharray="2 4" opacity="0.4"/>
    <circle cx="180" cy="560" r="42" fill="rgba(255,255,255,0.08)" stroke="#fff" stroke-width="1.2"/>
    <g transform="translate(156 536) scale(2)">
      <rect x="4"  y="4"  width="7" height="7" rx="0.8" fill="#f25022"/>
      <rect x="13" y="4"  width="7" height="7" rx="0.8" fill="#7fba00"/>
      <rect x="4"  y="13" width="7" height="7" rx="0.8" fill="#00a4ef"/>
      <rect x="13" y="13" width="7" height="7" rx="0.8" fill="#ffb900"/>
    </g>
    <text x="248" y="557" font-size="14" font-weight="700" fill="#e2e8f0">Copilot</text>
    <text x="248" y="575" font-size="10" fill="#94a3b8">Microsoft &middot; code</text>
  </g>

  <!-- 5. Gemini (Google) -->
  <g>
    <circle cx="180" cy="660" r="50" fill="none" stroke="#c084fc" stroke-width="1" stroke-dasharray="2 4" opacity="0.4"/>
    <circle cx="180" cy="660" r="42" fill="#4285F4" stroke="#4285F4" stroke-width="1.5"/>
    <g transform="translate(156 636) scale(2)">
      <path d="M12 2 C 12.7 7.5 16.5 11.3 22 12 C 16.5 12.7 12.7 16.5 12 22 C 11.3 16.5 7.5 12.7 2 12 C 7.5 11.3 11.3 7.5 12 2 Z" fill="#fff"/>
    </g>
    <text x="248" y="657" font-size="14" font-weight="700" fill="#e2e8f0">Gemini</text>
    <text x="248" y="675" font-size="10" fill="#94a3b8">Google &middot; multimodal</text>
  </g>

  <text x="180" y="745" text-anchor="middle" font-size="11" letter-spacing="3" fill="#94a3b8">+ any MCP client</text>

  <!-- ═══════════════════════════ CENTER — STACKTIC MAP ═══════════════════════════ -->

  <!-- Outer glow halo -->
  <circle cx="780" cy="510" r="320" fill="url(#mapGlow)" filter="url(#bigGlow)"/>

  <!-- Orbit ring -->
  <circle cx="780" cy="510" r="285" fill="none" stroke="rgba(96,213,255,0.18)" stroke-width="1" stroke-dasharray="4 8"/>
  <circle cx="1065" cy="510" r="3.5" fill="#60d5ff" opacity="0.8"/>
  <circle cx="495" cy="510" r="3.5" fill="#c084fc" opacity="0.8"/>
  <circle cx="780" cy="225" r="3.5" fill="#fbbf24" opacity="0.8"/>
  <circle cx="780" cy="795" r="3.5" fill="#34d399" opacity="0.8"/>

  <!-- Map vault rectangle (cleaner border) -->
  <rect x="540" y="240" width="480" height="560" rx="22"
        fill="rgba(20,18,40,0.92)"
        stroke="url(#mapBorder)" stroke-width="2.5"
        filter="url(#bigGlow)"/>

  <!-- Vault header text -->
  <text x="780" y="285" text-anchor="middle" font-size="11" font-weight="700" letter-spacing="5" fill="#fff" opacity="0.55">STACKTIC</text>
  <text x="780" y="318" text-anchor="middle" font-size="28" font-weight="700" letter-spacing="-1" fill="#fff">THE MAP</text>
  <text x="780" y="340" text-anchor="middle" font-size="10" letter-spacing="3" fill="#60d5ff" opacity="0.85">// ONE SOURCE OF TRUTH</text>

  <!-- Top badges inside vault -->
  <g>
    <rect x="560" y="362" width="98" height="26" rx="6" fill="rgba(96,213,255,0.10)" stroke="#60d5ff" stroke-width="1" opacity="0.85"/>
    <text x="572" y="379" font-size="10" fill="#60d5ff" letter-spacing="1">// audit live</text>
  </g>
  <g>
    <rect x="902" y="362" width="98" height="26" rx="6" fill="rgba(52,211,153,0.15)" stroke="#34d399" stroke-width="1"/>
    <circle cx="914" cy="375" r="3" fill="#34d399"/>
    <text x="924" y="379" font-size="11" font-weight="700" fill="#34d399">v3.2.1</text>
  </g>

  <!-- Topology graph centered at (780, 545) -->
  <g transform="translate(780 545)">
    <g stroke="#60d5ff" stroke-width="1.2" opacity="0.45" fill="none">
      <line x1="-170" y1="-70" x2="-60"  y2="-30"/>
      <line x1="-170" y1="-70" x2="-60"  y2="60"/>
      <line x1="-170" y1="70"  x2="-60"  y2="-30"/>
      <line x1="-170" y1="70"  x2="-60"  y2="60"/>
      <line x1="-60"  y1="-30" x2="60"   y2="-30"/>
      <line x1="-60"  y1="-30" x2="60"   y2="60"/>
      <line x1="-60"  y1="60"  x2="60"   y2="-30"/>
      <line x1="-60"  y1="60"  x2="60"   y2="60"/>
      <line x1="60"   y1="-30" x2="170"  y2="-70"/>
      <line x1="60"   y1="-30" x2="170"  y2="70"/>
      <line x1="60"   y1="60"  x2="170"  y2="-70"/>
      <line x1="60"   y1="60"  x2="170"  y2="70"/>
      <line x1="0"    y1="15"  x2="0"    y2="125"/>
      <line x1="-60"  y1="60"  x2="0"    y2="125"/>
      <line x1="60"   y1="60"  x2="0"    y2="125"/>
      <line x1="-170" y1="-70" x2="170"  y2="70" stroke-opacity="0.18"/>
      <line x1="-170" y1="70"  x2="170"  y2="-70" stroke-opacity="0.18"/>
    </g>
    <g>
      <circle cx="-170" cy="-70" r="20" fill="#c084fc" filter="url(#softGlow)"/>
      <text x="-170" y="-65" text-anchor="middle" font-size="10" font-weight="700" fill="#fff">app</text>
    </g>
    <g>
      <circle cx="-170" cy="70" r="20" fill="#c084fc" filter="url(#softGlow)"/>
      <text x="-170" y="75" text-anchor="middle" font-size="10" font-weight="700" fill="#fff">api</text>
    </g>
    <g>
      <circle cx="-60" cy="-30" r="20" fill="#60d5ff" filter="url(#softGlow)"/>
      <text x="-60" y="-25" text-anchor="middle" font-size="10" font-weight="700" fill="#1a1830">k8s</text>
    </g>
    <g>
      <circle cx="-60" cy="60" r="20" fill="#60d5ff" filter="url(#softGlow)"/>
      <text x="-60" y="65" text-anchor="middle" font-size="10" font-weight="700" fill="#1a1830">net</text>
    </g>
    <g>
      <circle cx="60" cy="-30" r="20" fill="#fff" filter="url(#softGlow)"/>
      <text x="60" y="-25" text-anchor="middle" font-size="10" font-weight="700" fill="#1a1830">db</text>
    </g>
    <g>
      <circle cx="60" cy="60" r="20" fill="#fff" filter="url(#softGlow)"/>
      <text x="60" y="65" text-anchor="middle" font-size="10" font-weight="700" fill="#1a1830">mq</text>
    </g>
    <g>
      <circle cx="170" cy="-70" r="20" fill="#34d399" filter="url(#softGlow)"/>
      <text x="170" y="-65" text-anchor="middle" font-size="9" font-weight="700" fill="#1a1830">obs</text>
    </g>
    <g>
      <circle cx="170" cy="70" r="20" fill="#34d399" filter="url(#softGlow)"/>
      <text x="170" y="75" text-anchor="middle" font-size="10" font-weight="700" fill="#1a1830">sec</text>
    </g>
    <g>
      <circle cx="0" cy="125" r="20" fill="#fbbf24" filter="url(#softGlow)"/>
      <text x="0" y="130" text-anchor="middle" font-size="10" font-weight="700" fill="#1a1830">ai</text>
    </g>
  </g>

  <!-- Metadata stripes -->
  <g transform="translate(560 745)">
    <rect x="0"   y="0" width="62" height="20" rx="3" fill="rgba(167,139,250,0.18)" stroke="#a78bfa" stroke-width="0.8"/>
    <text x="31"  y="14" text-anchor="middle" font-size="10" font-weight="700" fill="#c084fc">links</text>
    <rect x="70"  y="0" width="80" height="20" rx="3" fill="rgba(96,213,255,0.18)" stroke="#60d5ff" stroke-width="0.8"/>
    <text x="110" y="14" text-anchor="middle" font-size="10" font-weight="700" fill="#60d5ff">topology</text>
    <rect x="158" y="0" width="88" height="20" rx="3" fill="rgba(251,191,36,0.18)" stroke="#fbbf24" stroke-width="0.8"/>
    <text x="202" y="14" text-anchor="middle" font-size="10" font-weight="700" fill="#fbbf24">attributes</text>
    <rect x="254" y="0" width="78" height="20" rx="3" fill="rgba(52,211,153,0.18)" stroke="#34d399" stroke-width="0.8"/>
    <text x="293" y="14" text-anchor="middle" font-size="10" font-weight="700" fill="#34d399">policies</text>
    <rect x="340" y="0" width="100" height="20" rx="3" fill="rgba(248,113,113,0.16)" stroke="#f87171" stroke-width="0.8"/>
    <text x="390" y="14" text-anchor="middle" font-size="10" font-weight="700" fill="#f87171">credentials</text>
  </g>

  <text x="780" y="785" text-anchor="middle" font-size="10" letter-spacing="3" fill="#a78bfa" opacity="0.85">bound &middot; restricted &middot; governed &middot; versioned &middot; reversible</text>

  <!-- ═══════════════════════════ RIGHT — 4 CAPABILITY CARDS (aligned to map vault y=240-800) ═══════════════════════════ -->

  <!-- CARD 1: COMPLIANCE EVIDENCE (y=240-380, 140 tall) -->
  <rect x="1100" y="240" width="460" height="140" rx="14"
        fill="rgba(52,211,153,0.06)" stroke="#34d399" stroke-width="1.3"/>
  <rect x="1100" y="240" width="6" height="140" fill="#34d399" filter="url(#softGlow)"/>
  <text x="1120" y="270" font-size="10" letter-spacing="3" fill="#34d399" font-weight="700">01 // COMPLIANCE EVIDENCE</text>
  <text x="1120" y="295" font-size="18" font-weight="700" fill="#fff" letter-spacing="-0.3">Audit-grade. Per action.</text>
  <g>
    <g transform="translate(1126 315)">
      <rect width="78" height="50" rx="6" fill="rgba(52,211,153,0.18)" stroke="#34d399" stroke-width="1.2"/>
      <text x="39" y="22" text-anchor="middle" font-size="13" font-weight="700" fill="#fff">PCI</text>
      <text x="39" y="40" text-anchor="middle" font-size="9" fill="#34d399">DSS &#x2713;</text>
    </g>
    <g transform="translate(1212 315)">
      <rect width="78" height="50" rx="6" fill="rgba(52,211,153,0.18)" stroke="#34d399" stroke-width="1.2"/>
      <text x="39" y="22" text-anchor="middle" font-size="13" font-weight="700" fill="#fff">ISO</text>
      <text x="39" y="40" text-anchor="middle" font-size="9" fill="#34d399">27001 &#x2713;</text>
    </g>
    <g transform="translate(1298 315)">
      <rect width="78" height="50" rx="6" fill="rgba(52,211,153,0.18)" stroke="#34d399" stroke-width="1.2"/>
      <text x="39" y="22" text-anchor="middle" font-size="13" font-weight="700" fill="#fff">SOC</text>
      <text x="39" y="40" text-anchor="middle" font-size="9" fill="#34d399">2 &#x2713;</text>
    </g>
    <g transform="translate(1384 315)">
      <rect width="78" height="50" rx="6" fill="rgba(52,211,153,0.18)" stroke="#34d399" stroke-width="1.2"/>
      <text x="39" y="22" text-anchor="middle" font-size="13" font-weight="700" fill="#fff">DORA</text>
      <text x="39" y="40" text-anchor="middle" font-size="9" fill="#34d399">EU &#x2713;</text>
    </g>
  </g>

  <!-- CARD 2: VERSIONING (y=400-530, 130 tall) -->
  <rect x="1100" y="400" width="460" height="130" rx="14"
        fill="rgba(96,213,255,0.06)" stroke="#60d5ff" stroke-width="1.3"/>
  <rect x="1100" y="400" width="6" height="130" fill="#60d5ff" filter="url(#softGlow)"/>
  <text x="1120" y="430" font-size="10" letter-spacing="3" fill="#60d5ff" font-weight="700">02 // VERSIONING</text>
  <text x="1120" y="455" font-size="18" font-weight="700" fill="#fff" letter-spacing="-0.3">Every state snapshot-able.</text>
  <g transform="translate(1126 478)">
    <line x1="0" y1="20" x2="400" y2="20" stroke="rgba(255,255,255,0.15)" stroke-width="2"/>
    <circle cx="20"  cy="20" r="6" fill="#60d5ff" opacity="0.5"/>
    <text   x="20"  y="42" text-anchor="middle" font-size="9" fill="#94a3b8">v3.0</text>
    <circle cx="140" cy="20" r="6" fill="#60d5ff" opacity="0.7"/>
    <text   x="140" y="42" text-anchor="middle" font-size="9" fill="#94a3b8">v3.1</text>
    <circle cx="260" cy="20" r="6" fill="#60d5ff" opacity="0.85"/>
    <text   x="260" y="42" text-anchor="middle" font-size="9" fill="#94a3b8">v3.2</text>
    <circle cx="380" cy="20" r="10" fill="#34d399" filter="url(#softGlow)"/>
    <text   x="380" y="42" text-anchor="middle" font-size="10" fill="#34d399" font-weight="700">v3.2.1</text>
    <text   x="380" y="-2" text-anchor="middle" font-size="8" letter-spacing="2" fill="#34d399">NOW</text>
  </g>

  <!-- CARD 3: MIGRATIONS (y=550-680, 130 tall) -->
  <rect x="1100" y="550" width="460" height="130" rx="14"
        fill="rgba(251,191,36,0.06)" stroke="#fbbf24" stroke-width="1.3"/>
  <rect x="1100" y="550" width="6" height="130" fill="#fbbf24" filter="url(#softGlow)"/>
  <text x="1120" y="580" font-size="10" letter-spacing="3" fill="#fbbf24" font-weight="700">03 // MIGRATIONS</text>
  <text x="1120" y="605" font-size="18" font-weight="700" fill="#fff" letter-spacing="-0.3">Atomic. Any cloud.</text>
  <g transform="translate(1126 632)">
    <rect x="0"   y="0" width="60" height="32" rx="4" fill="#ff9900"/>
    <text x="30"  y="22" text-anchor="middle" font-size="14" font-weight="700" fill="#fff">AWS</text>
    <path d="M 70 16 L 105 16" stroke="#fbbf24" stroke-width="1.5" stroke-dasharray="5 3"/>
    <polygon points="110,16 104,12 104,20" fill="#fbbf24"/>
    <rect x="115" y="0" width="64" height="32" rx="4" fill="#0078d4"/>
    <text x="147" y="22" text-anchor="middle" font-size="13" font-weight="700" fill="#fff">AZURE</text>
    <path d="M 189 16 L 224 16" stroke="#fbbf24" stroke-width="1.5" stroke-dasharray="5 3"/>
    <polygon points="229,16 223,12 223,20" fill="#fbbf24"/>
    <rect x="234" y="0" width="60" height="32" rx="4" fill="#4285f4"/>
    <text x="264" y="22" text-anchor="middle" font-size="14" font-weight="700" fill="#fff">GCP</text>
    <text x="304" y="22" font-size="11" fill="#fbbf24" letter-spacing="1">+ on-prem</text>
  </g>

  <!-- CARD 4: ROLLBACK (y=700-830, 130 tall) -->
  <rect x="1100" y="700" width="460" height="130" rx="14"
        fill="rgba(248,113,113,0.06)" stroke="#f87171" stroke-width="1.3"/>
  <rect x="1100" y="700" width="6" height="130" fill="#f87171" filter="url(#softGlow)"/>
  <text x="1120" y="730" font-size="10" letter-spacing="3" fill="#f87171" font-weight="700">04 // ROLLBACK</text>
  <text x="1120" y="755" font-size="18" font-weight="700" fill="#fff" letter-spacing="-0.3">Any prior state. Atomic.</text>
  <g transform="translate(1126 780)">
    <g transform="translate(20 20)">
      <path d="M 15 0 A 15 15 0 1 0 0 -15" stroke="#f87171" stroke-width="2" fill="none"/>
      <polygon points="0,-15 -5,-21 -5,-9" fill="#f87171"/>
    </g>
    <text x="58" y="14" font-size="12" fill="#fff" letter-spacing="0.5">stack &middot; data &middot; config &middot; policy</text>
    <text x="58" y="34" font-size="10" fill="#94a3b8">revert in <tspan fill="#f87171" font-weight="700">seconds</tspan></text>
  </g>

  <!-- ═══════════════════════════ BOTTOM ANNOTATIONS ═══════════════════════════ -->
  <text x="180"  y="890" text-anchor="middle" font-size="11" font-weight="600" letter-spacing="2" fill="#94a3b8">// any AI client</text>
  <text x="780"  y="890" text-anchor="middle" font-size="11" font-weight="600" letter-spacing="3" fill="#fff">topology in &mdash; autonomous out</text>
  <text x="1330" y="890" text-anchor="middle" font-size="11" font-weight="600" letter-spacing="2" fill="#94a3b8">// fully operated &middot; 100% accurate</text>

  <!-- Closer line -->
  <text x="800" y="950" text-anchor="middle" font-size="14" fill="#cbd5e1">
    <tspan fill="#64748b">Without Stacktic &mdash;</tspan>
    <tspan dx="6" fill="#cbd5e1">AI runs free.</tspan>
    <tspan dx="20" fill="#64748b">With Stacktic &mdash;</tspan>
    <tspan dx="6" fill="url(#headlineGrad)" font-weight="700">AI runs production, under enterprise control.</tspan>
  </text>

</svg>
